<mxfile host="app.diagrams.net" modified="2024-03-28T15:39:50.044Z" agent="Mozilla/5.0 (Windows NT 10.0; Win64; x64) AppleWebKit/537.36 (KHTML, like Gecko) Chrome/122.0.0.0 Safari/537.36 Edg/122.0.0.0" version="24.2.1" etag="YJseKWLphPi4yi4VJgmn" type="github">
  <diagram name="PÃ¡gina-1" id="H7SlzKvfQT6RZwtmUtB_">
    <mxGraphModel>
      <root>
        <mxCell id="0" />
        <mxCell id="1" parent="0" />
      </root>
    </mxGraphModel>
  </diagram>
</mxfile>
